<svg id="LOGO" xmlns="http://www.w3.org/2000/svg" viewBox="0 0 497.35 119"><defs><style>.cls-1,.cls-2{fill:#fff;}.cls-1{fill-rule:evenodd;}</style></defs><title>Logo_new_v3_white</title><g id="TEXT"><path class="cls-1" d="M163.74,62.06C151.48,57.3,148,54.18,148,49c0-3.87,3.62-7.88,11.12-7.88C170,41.17,177.25,49,177.25,49L188.5,36.91s-10.62-11.25-29.64-11.25c-18.38,0-30.4,10.63-30.4,24.89,0,12.64,8.76,20.39,20.89,25.13C165,81.94,169.24,86,169.24,91.58c0,4.88-4.5,8.63-11.12,8.63-13.5,0-23.14-9.75-23.14-9.75l-11.25,12.12s11.52,13.13,33.4,13.13c19.13,0,31.64-11.63,31.64-26.26C188.76,75.19,176.87,67.18,163.74,62.06Zm59.91-13.39c-19.75,0-34.89,14.89-34.89,33.76s14.63,33.27,34.64,33.27c20.39,0,29-13,29-13L241.67,92.33a21.64,21.64,0,0,1-17,7.76c-9.64,0-16.39-5.89-17.65-14.4H254.8a16.87,16.87,0,0,0,1-6C255.8,62.81,241.67,48.67,223.65,48.67ZM207.39,74.55c1.5-7.37,7.76-12.62,15.89-12.62a15.22,15.22,0,0,1,15,12.62H207.39Zm50.92,39.91h18.38V26.91H258.31v87.55Zm58.54-74a24,24,0,0,1,9,1.63L328,28.28s-5.5-2.63-16.26-2.63c-14,0-22.51,8.38-22.51,22.9v5.12H277.31V68.19H289.2v46.27h18.14V68.19h19.39V53.68H307.34V49.93C307.34,43.79,310.72,40.42,316.85,40.42Zm47,9.13a29.31,29.31,0,0,0-25.26,13.77V26.91h-9.38v87.55H337l1-12.64A29.39,29.39,0,0,0,363.5,115.7c17.63,0,32.15-14.63,32.15-33.27S381.39,49.55,363.87,49.55Zm-1.75,57.52c-13.75,0-24.13-10.5-24.13-24.5s10.38-24.4,24.13-24.4,24.15,10.5,24.15,24.4S375.88,107.08,362.12,107.08Zm44.52-81.29A6.43,6.43,0,0,0,400,32.41a6.7,6.7,0,1,0,13.39,0A6.49,6.49,0,0,0,406.64,25.79Zm-4.73,88.68h9.64V50.81h-9.64v63.66ZM486.34,77.7c-11.88-3.15-14.77-7.26-14.77-11.89,0-4.13,4.24-8.76,13.13-8.76a25.54,25.54,0,0,1,16.13,5.89l4.5-6.51a34.59,34.59,0,0,0-21-6.88c-14.52,0-22,8.38-22,17.26,0,8.5,6.9,14.76,18.38,17.88,14,3.75,16.77,8.29,16.77,13.54s-5,10-14,10a32.6,32.6,0,0,1-19.39-7l-3.18,4.62-0.09-.49a47.07,47.07,0,0,1-12,1.73c-7.13,0-11.63-4.13-11.63-13.13V58.31h25v-7.5h-25V34.42h-9.38V50.81H414.66v7.5h13.13V95.59c0,13.36,7.5,20.11,19.51,20.11,9.38,0,14.89-2.63,14.89-2.63L461.46,109a38,38,0,0,0,21.86,6.72c15,0,23.4-8.63,23.4-18.87C506.72,87.94,500,81.31,486.34,77.7Z" transform="translate(-9.36 -11.18)"/></g><path class="cls-2" d="M83.65,68c10.2-5.43,16.49-15,16.49-26.34,0-17.68-14.62-30.43-37.4-30.43H12.4a3,3,0,0,0-3,3V127.15a3,3,0,0,0,3,3H65.8c23.46,0,39.6-14.45,39.6-33C105.4,83.43,97.08,72.55,83.65,68ZM52.8,116.81c-22.11,0-33.75-13.27-33.75-13.27L30.43,91.27s9.74,9.86,23.39,9.86c6.7,0,11.25-3.79,11.25-8.72,0-5.69-4.3-9.74-20.1-16.05-12.27-4.81-21.1-12.64-21.1-25.41,0-14.41,12.13-25.16,30.71-25.16,19.21,0,30,11.38,30,11.38L73.15,49.43s-7.33-8-18.33-8c-7.59,0-11.25,4-11.25,8,0,5.18,3.54,8.35,15.92,13.15,13.28,5.18,25.29,13.27,25.29,27.68C84.79,105.05,72.15,116.81,52.8,116.81Z" transform="translate(-9.36 -11.18)"/></svg>